<?xml version="1.0" encoding="UTF-8"?><svg id="Layer_2" xmlns="http://www.w3.org/2000/svg" viewBox="0 0 507.79 533.22"><defs><style>.cls-1{fill:#fff;}.cls-2{stroke-linejoin:round;}.cls-2,.cls-3{fill:none;stroke:#fff;stroke-linecap:round;stroke-width:10px;}.cls-3{stroke-miterlimit:10;}</style></defs><g id="hat"><path class="cls-1" d="m281.32,533.1c-8.34,0-15.46-6.24-16.55-14.51l-4.92-37.12c-2.53-.07-5.04-.13-7.53-.18l-4.95,37.3c-1.09,8.27-8.21,14.51-16.55,14.51l-154.41.12c-5.66,0-10.64-3.41-12.68-8.68-2.04-5.27-.66-11.14,3.52-14.95l37.56-34.21c-8.97-5.83-16.17-14.01-21.8-24.72-6.92-13.17-11.66-30.42-14.77-53.9-15.54-4.68-28.84-11.81-39.62-21.22-14.25-12.46-23.32-28.3-26.94-47.09-4.66-23.6.43-49.47,13.95-70.91,12.19-19.12,28.31-34.62,50.53-48.51,7.72-51.46,29.45-86.84,67.11-108.25-4.01-1.54-7.11-4.95-8.16-9.32-1.44-6.01,1.41-12.16,6.92-14.96l.74-.38,64.74-20.29,3.44-34.88c1.15-11.69,10.87-20.5,22.61-20.5,3.2,0,6.31.67,9.26,1.99l20.13,8.99,16.6-8.78c3.27-1.73,6.94-2.64,10.61-2.64,10.52,0,19.61,7.14,22.09,17.36l9.55,39.31,66.82,18.65.83.41c5.57,2.74,8.49,8.89,7.09,14.94-.87,3.78-3.28,6.85-6.47,8.63,11.1,6.58,20.5,14.65,28.53,24.39,16.64,20.2,27.24,47.68,33.18,86.18,25.06,13.78,43.96,31.83,54.81,52.44,12.77,24.32,14.71,51.98,5.33,75.9-10.94,28.27-35.07,43.97-55.4,52.47-3.16,29.6-11.33,66.22-39.48,84.46l37.83,34.45c4.18,3.81,5.56,9.67,3.52,14.95-2.04,5.27-7.01,8.68-12.67,8.68,0,0-154.42-.12-154.42-.12Z"/><path d="m487.75,266.98c-11.7-22.22-32.24-38.9-55.11-50.65-10.68-76.04-39.1-112.29-104.6-125.22l45.56-.13c3.5-.01,4.59-4.73,1.45-6.28l-71.57-19.97-10.94-45c-1.96-8.06-10.98-12.12-18.31-8.24l-20.91,11.06-24.57-10.97c-7.93-3.54-16.99,1.73-17.84,10.37l-4.09,41.46-70.26,22.02c-3.11,1.58-1.98,6.27,1.51,6.26l49.88-.15c-74.04,15.54-104.16,59.57-112.54,123.58-20.1,11.99-37.9,26.72-51.32,47.78-11.79,18.69-16.91,41.8-12.59,63.69,6.78,35.17,34.47,54.59,65.85,62.33,5.62,49.4,18.02,74.96,45.15,83.91l-48.52,44.18c-2.42,2.2-.86,6.23,2.41,6.23l154.41-.12c3.36,0,6.2-2.49,6.65-5.83l5.83-43.93.28-2.16c8.8.05,17.13.27,25.09.58l.2,1.58,5.83,43.93c.44,3.33,3.28,5.83,6.65,5.83l154.41.12c3.27,0,4.84-4.03,2.41-6.23l-48.68-44.33c31.74-11.07,43.76-44.64,47.7-89.04,23.69-8.71,45.89-24.35,55.45-49.06,8.64-22.04,5.94-46.99-4.87-67.59Z"/></g><g id="face"><path class="cls-3" d="m266.02,167.79s0-14.01,12.77-14.01,12.77,14.01,12.77,14.01"/><path class="cls-3" d="m220.09,167.79s0-14.01,12.77-14.01,12.77,14.01,12.77,14.01"/><path class="cls-3" d="m243.33,136.25s-.88-.31-6.47-.31c-6.29,0-12.77,2.77-12.77,2.77"/><path class="cls-3" d="m268.32,136.25s.88-.31,6.47-.31c6.29,0,12.77,2.77,12.77,2.77"/><path class="cls-3" d="m221.01,190.67s11.08,19.81,34.82,19.81,34.82-19.81,34.82-19.81"/></g><g id="hands"><path class="cls-2" d="m68.46,391.74l37.12,9.26s10.39,22.12,26.13,18.79c12.89-2.72,3.71-25.14,3.71-25.14,0,0,33.05-1.6,32.59-14.29-.54-14.8-28.69-9.53-28.69-9.53,0,0,21.19-15.78,12.61-26.07-6.71-8.04-27.66,10.49-27.66,10.49,0,0,8.76-16.04,1.16-21.52-9.2-6.64-27.35,10.24-19.64,29.42-41.07,5.06-40.99-33.14-40.99-33.14"/><path class="cls-2" d="m447.13,386.17l-37.12,9.26s-10.39,22.12-26.13,18.79c-12.89-2.72-3.71-25.14-3.71-25.14,0,0-33.05-1.6-32.59-14.29.54-14.8,28.69-9.53,28.69-9.53,0,0-21.19-15.78-12.61-26.07,6.71-8.04,27.66,10.49,27.66,10.49,0,0-8.76-16.04-1.16-21.52,9.2-6.64,27.35,10.24,19.64,29.42,41.07,5.06,40.99-33.14,40.99-33.14"/><path class="cls-2" d="m303.71,470.06c-16.59-1.41-47.41-2.51-47.41-2.51,0,0-22.3.11-42.03,2.06"/></g></svg>